%
M48
M72
T01C0.0120
T02C0.0400
T03C0.1300
%
T01
X6584Y6375
X7734Y6675
X7384Y7725
X7384Y8475
X9084Y8275
X9034Y7875
X8834Y7125
X9933Y7125
X10834Y7875
X10134Y8575
X10834Y9375
X12034Y7875
X12334Y8075
X12334Y6725
X12734Y6625
X11884Y6025
X11834Y5375
X10834Y4875
X10834Y4375
X9834Y5375
X9834Y5775
X16784Y6375
X17934Y6675
X19034Y7125
X19234Y7875
X19284Y8275
X20334Y8575
X21034Y7875
X20133Y7125
X20034Y5775
X20034Y5375
X21034Y4875
X21034Y4375
X22034Y5375
X22084Y6025
X22534Y6725
X22934Y6625
X22234Y7875
X22534Y8075
X21034Y9375
X17584Y8475
X17584Y7725
X21034Y14575
X21034Y15075
X22034Y15575
X22084Y16225
X22534Y16925
X22934Y16825
X22234Y18075
X22534Y18275
X21034Y18075
X20334Y18775
X21034Y19575
X19284Y18475
X19234Y18075
X19034Y17325
X17934Y16875
X17584Y17925
X17584Y18675
X16784Y16575
X20034Y15975
X20034Y15575
X20133Y17325
X26984Y16575
X28134Y16875
X27784Y17925
X27784Y18675
X29484Y18475
X29434Y18075
X29234Y17325
X30333Y17325
X31234Y18075
X30534Y18775
X31234Y19575
X32434Y18075
X32734Y18275
X32734Y16925
X33134Y16825
X32284Y16225
X32234Y15575
X31234Y15075
X31234Y14575
X30234Y15575
X30234Y15975
X31234Y9375
X30534Y8575
X31234Y7875
X30333Y7125
X29234Y7125
X29434Y7875
X29484Y8275
X27784Y8475
X27784Y7725
X28134Y6675
X26984Y6375
X30234Y5775
X30234Y5375
X31234Y4875
X31234Y4375
X32234Y5375
X32284Y6025
X32734Y6725
X33134Y6625
X32434Y7875
X32734Y8075
X31234Y24775
X31234Y25275
X30234Y25775
X30234Y26175
X30333Y27525
X29234Y27525
X29434Y28275
X29484Y28675
X30534Y28975
X31234Y28275
X32434Y28275
X32734Y28475
X32734Y27125
X33134Y27025
X32284Y26425
X32234Y25775
X28134Y27075
X26984Y26775
X27784Y28125
X27784Y28875
X31234Y29775
X22934Y27025
X22534Y27125
X22084Y26425
X22034Y25775
X21034Y25275
X21034Y24775
X20034Y25775
X20034Y26175
X20133Y27525
X19234Y28275
X19284Y28675
X20334Y28975
X21034Y28275
X22234Y28275
X22534Y28475
X21034Y29775
X19034Y27525
X17934Y27075
X17584Y28125
X17584Y28875
X16784Y26775
X12734Y27025
X12334Y27125
X11884Y26425
X11834Y25775
X10834Y25275
X10834Y24775
X9834Y25775
X9834Y26175
X9933Y27525
X8834Y27525
X9034Y28275
X9084Y28675
X10134Y28975
X10834Y28275
X12034Y28275
X12334Y28475
X10834Y29775
X7384Y28875
X7384Y28125
X7734Y27075
X6584Y26775
X10834Y19575
X10134Y18775
X10834Y18075
X9933Y17325
X8834Y17325
X9034Y18075
X9084Y18475
X7384Y18675
X7384Y17925
X7734Y16875
X6584Y16575
X9834Y15975
X9834Y15575
X10834Y15075
X10834Y14575
X11834Y15575
X11884Y16225
X12734Y16825
X12334Y16925
X12034Y18075
X12334Y18275
T02
X12334Y13575
X11334Y13575
X10334Y13575
X9334Y13575
X8334Y13575
X7334Y13575
X17534Y13575
X18534Y13575
X19534Y13575
X20534Y13575
X21534Y13575
X22534Y13575
X27734Y13575
X28734Y13575
X29734Y13575
X30734Y13575
X31734Y13575
X32734Y13575
X32734Y3375
X31734Y3375
X30734Y3375
X29734Y3375
X28734Y3375
X27734Y3375
X22534Y3375
X21534Y3375
X20534Y3375
X19534Y3375
X18534Y3375
X17534Y3375
X12334Y3375
X11334Y3375
X10334Y3375
X9334Y3375
X8334Y3375
X7334Y3375
X7334Y23775
X8334Y23775
X9334Y23775
X10334Y23775
X11334Y23775
X12334Y23775
X17534Y23775
X18534Y23775
X19534Y23775
X20534Y23775
X21534Y23775
X22534Y23775
X27734Y23775
X28734Y23775
X29734Y23775
X30734Y23775
X31734Y23775
X32734Y23775
T03
X5834Y3875
X13834Y3875
X16034Y3875
X24034Y3875
X26234Y3875
X34234Y3875
X34234Y11875
X34234Y14075
X26234Y14075
X24034Y14075
X24034Y11875
X26234Y11875
X16034Y11875
X13834Y11875
X13834Y14075
X16034Y14075
X16034Y22075
X13834Y22075
X13834Y24275
X16034Y24275
X24034Y24275
X24034Y22075
X26234Y22075
X26234Y24275
X34234Y24275
X34234Y22075
X34234Y32275
X26234Y32275
X24034Y32275
X16034Y32275
X13834Y32275
X5834Y32275
X5834Y24275
X5834Y22075
X5834Y14075
X5834Y11875
M30
