G75*
%MOIN*%
%OFA0B0*%
%FSLAX25Y25*%
%IPPOS*%
%LPD*%
%AMOC8*
5,1,8,0,0,1.08239X$1,22.5*
%
%ADD10R,0.08674X0.05524*%
%ADD11R,0.06115X0.03162*%
%ADD12C,0.08200*%
%ADD13C,0.01990*%
%ADD14R,0.04737X0.05131*%
%ADD15R,0.01784X0.01883*%
%ADD16R,0.01883X0.01784*%
%ADD17R,0.05131X0.04737*%
%ADD18C,0.13800*%
%ADD19C,0.03300*%
%ADD20C,0.04737*%
%ADD21C,0.05000*%
%ADD22C,0.06706*%
D10*
X0053873Y0067726D03*
X0053873Y0089774D03*
X0053873Y0169726D03*
X0053873Y0191774D03*
X0053873Y0271726D03*
X0053873Y0293774D03*
X0142810Y0293774D03*
X0155873Y0293774D03*
X0155873Y0271726D03*
X0142810Y0271726D03*
X0142810Y0191774D03*
X0155873Y0191774D03*
X0155873Y0169726D03*
X0142810Y0169726D03*
X0142810Y0089774D03*
X0155873Y0089774D03*
X0155873Y0067726D03*
X0142810Y0067726D03*
X0244810Y0067726D03*
X0257873Y0067726D03*
X0257873Y0089774D03*
X0244810Y0089774D03*
X0244810Y0169726D03*
X0257873Y0169726D03*
X0257873Y0191774D03*
X0244810Y0191774D03*
X0244810Y0271726D03*
X0257873Y0271726D03*
X0257873Y0293774D03*
X0244810Y0293774D03*
X0346810Y0293774D03*
X0346810Y0271726D03*
X0346810Y0191774D03*
X0346810Y0169726D03*
X0346810Y0089774D03*
X0346810Y0067726D03*
D11*
X0332342Y0072844D03*
X0332342Y0076781D03*
X0332342Y0080719D03*
X0332342Y0084656D03*
X0272342Y0084656D03*
X0272342Y0080719D03*
X0272342Y0076781D03*
X0272342Y0072844D03*
X0230342Y0072844D03*
X0230342Y0076781D03*
X0230342Y0080719D03*
X0230342Y0084656D03*
X0170342Y0084656D03*
X0170342Y0080719D03*
X0170342Y0076781D03*
X0170342Y0072844D03*
X0128342Y0072844D03*
X0128342Y0076781D03*
X0128342Y0080719D03*
X0128342Y0084656D03*
X0068342Y0084656D03*
X0068342Y0080719D03*
X0068342Y0076781D03*
X0068342Y0072844D03*
X0068342Y0174844D03*
X0068342Y0178781D03*
X0068342Y0182719D03*
X0068342Y0186656D03*
X0128342Y0186656D03*
X0128342Y0182719D03*
X0128342Y0178781D03*
X0128342Y0174844D03*
X0170342Y0174844D03*
X0170342Y0178781D03*
X0170342Y0182719D03*
X0170342Y0186656D03*
X0230342Y0186656D03*
X0230342Y0182719D03*
X0230342Y0178781D03*
X0230342Y0174844D03*
X0272342Y0174844D03*
X0272342Y0178781D03*
X0272342Y0182719D03*
X0272342Y0186656D03*
X0332342Y0186656D03*
X0332342Y0182719D03*
X0332342Y0178781D03*
X0332342Y0174844D03*
X0332342Y0276844D03*
X0332342Y0280781D03*
X0332342Y0284719D03*
X0332342Y0288656D03*
X0272342Y0288656D03*
X0272342Y0284719D03*
X0272342Y0280781D03*
X0272342Y0276844D03*
X0230342Y0276844D03*
X0230342Y0280781D03*
X0230342Y0284719D03*
X0230342Y0288656D03*
X0170342Y0288656D03*
X0170342Y0284719D03*
X0170342Y0280781D03*
X0170342Y0276844D03*
X0128342Y0276844D03*
X0128342Y0280781D03*
X0128342Y0284719D03*
X0128342Y0288656D03*
X0068342Y0288656D03*
X0068342Y0284719D03*
X0068342Y0280781D03*
X0068342Y0276844D03*
D12*
X0073342Y0237750D03*
X0083342Y0237750D03*
X0093342Y0237750D03*
X0103342Y0237750D03*
X0113342Y0237750D03*
X0123342Y0237750D03*
X0175342Y0237750D03*
X0185342Y0237750D03*
X0195342Y0237750D03*
X0205342Y0237750D03*
X0215342Y0237750D03*
X0225342Y0237750D03*
X0277342Y0237750D03*
X0287342Y0237750D03*
X0297342Y0237750D03*
X0307342Y0237750D03*
X0317342Y0237750D03*
X0327342Y0237750D03*
X0327342Y0135750D03*
X0317342Y0135750D03*
X0307342Y0135750D03*
X0297342Y0135750D03*
X0287342Y0135750D03*
X0277342Y0135750D03*
X0225342Y0135750D03*
X0215342Y0135750D03*
X0205342Y0135750D03*
X0195342Y0135750D03*
X0185342Y0135750D03*
X0175342Y0135750D03*
X0123342Y0135750D03*
X0113342Y0135750D03*
X0103342Y0135750D03*
X0093342Y0135750D03*
X0083342Y0135750D03*
X0073342Y0135750D03*
X0073342Y0033750D03*
X0083342Y0033750D03*
X0093342Y0033750D03*
X0103342Y0033750D03*
X0113342Y0033750D03*
X0123342Y0033750D03*
X0175342Y0033750D03*
X0185342Y0033750D03*
X0195342Y0033750D03*
X0205342Y0033750D03*
X0215342Y0033750D03*
X0225342Y0033750D03*
X0277342Y0033750D03*
X0287342Y0033750D03*
X0297342Y0033750D03*
X0307342Y0033750D03*
X0317342Y0033750D03*
X0327342Y0033750D03*
D13*
X0264715Y0051424D02*
X0261969Y0051424D01*
X0261969Y0054170D01*
X0264715Y0054170D01*
X0264715Y0051424D01*
X0264715Y0053314D02*
X0261969Y0053314D01*
X0261969Y0058330D02*
X0264715Y0058330D01*
X0261969Y0058330D02*
X0261969Y0061076D01*
X0264715Y0061076D01*
X0264715Y0058330D01*
X0264715Y0060220D02*
X0261969Y0060220D01*
X0162715Y0058330D02*
X0159969Y0058330D01*
X0159969Y0061076D01*
X0162715Y0061076D01*
X0162715Y0058330D01*
X0162715Y0060220D02*
X0159969Y0060220D01*
X0159969Y0051424D02*
X0162715Y0051424D01*
X0159969Y0051424D02*
X0159969Y0054170D01*
X0162715Y0054170D01*
X0162715Y0051424D01*
X0162715Y0053314D02*
X0159969Y0053314D01*
X0060715Y0051424D02*
X0057969Y0051424D01*
X0057969Y0054170D01*
X0060715Y0054170D01*
X0060715Y0051424D01*
X0060715Y0053314D02*
X0057969Y0053314D01*
X0057969Y0058330D02*
X0060715Y0058330D01*
X0057969Y0058330D02*
X0057969Y0061076D01*
X0060715Y0061076D01*
X0060715Y0058330D01*
X0060715Y0060220D02*
X0057969Y0060220D01*
X0057969Y0153424D02*
X0060715Y0153424D01*
X0057969Y0153424D02*
X0057969Y0156170D01*
X0060715Y0156170D01*
X0060715Y0153424D01*
X0060715Y0155314D02*
X0057969Y0155314D01*
X0057969Y0160330D02*
X0060715Y0160330D01*
X0057969Y0160330D02*
X0057969Y0163076D01*
X0060715Y0163076D01*
X0060715Y0160330D01*
X0060715Y0162220D02*
X0057969Y0162220D01*
X0057969Y0255424D02*
X0060715Y0255424D01*
X0057969Y0255424D02*
X0057969Y0258170D01*
X0060715Y0258170D01*
X0060715Y0255424D01*
X0060715Y0257314D02*
X0057969Y0257314D01*
X0057969Y0262330D02*
X0060715Y0262330D01*
X0057969Y0262330D02*
X0057969Y0265076D01*
X0060715Y0265076D01*
X0060715Y0262330D01*
X0060715Y0264220D02*
X0057969Y0264220D01*
X0159969Y0262330D02*
X0162715Y0262330D01*
X0159969Y0262330D02*
X0159969Y0265076D01*
X0162715Y0265076D01*
X0162715Y0262330D01*
X0162715Y0264220D02*
X0159969Y0264220D01*
X0159969Y0255424D02*
X0162715Y0255424D01*
X0159969Y0255424D02*
X0159969Y0258170D01*
X0162715Y0258170D01*
X0162715Y0255424D01*
X0162715Y0257314D02*
X0159969Y0257314D01*
X0261969Y0255424D02*
X0264715Y0255424D01*
X0261969Y0255424D02*
X0261969Y0258170D01*
X0264715Y0258170D01*
X0264715Y0255424D01*
X0264715Y0257314D02*
X0261969Y0257314D01*
X0261969Y0262330D02*
X0264715Y0262330D01*
X0261969Y0262330D02*
X0261969Y0265076D01*
X0264715Y0265076D01*
X0264715Y0262330D01*
X0264715Y0264220D02*
X0261969Y0264220D01*
X0261969Y0160330D02*
X0264715Y0160330D01*
X0261969Y0160330D02*
X0261969Y0163076D01*
X0264715Y0163076D01*
X0264715Y0160330D01*
X0264715Y0162220D02*
X0261969Y0162220D01*
X0261969Y0153424D02*
X0264715Y0153424D01*
X0261969Y0153424D02*
X0261969Y0156170D01*
X0264715Y0156170D01*
X0264715Y0153424D01*
X0264715Y0155314D02*
X0261969Y0155314D01*
X0162715Y0153424D02*
X0159969Y0153424D01*
X0159969Y0156170D01*
X0162715Y0156170D01*
X0162715Y0153424D01*
X0162715Y0155314D02*
X0159969Y0155314D01*
X0159969Y0160330D02*
X0162715Y0160330D01*
X0159969Y0160330D02*
X0159969Y0163076D01*
X0162715Y0163076D01*
X0162715Y0160330D01*
X0162715Y0162220D02*
X0159969Y0162220D01*
D14*
X0167842Y0161596D03*
X0167842Y0154904D03*
X0185342Y0162404D03*
X0185342Y0169096D03*
X0185342Y0177404D03*
X0185342Y0184096D03*
X0195342Y0169096D03*
X0195342Y0162404D03*
X0205342Y0162404D03*
X0205342Y0169096D03*
X0215342Y0169096D03*
X0215342Y0162404D03*
X0215342Y0177404D03*
X0215342Y0184096D03*
X0269842Y0161596D03*
X0269842Y0154904D03*
X0287342Y0162404D03*
X0287342Y0169096D03*
X0287342Y0177404D03*
X0287342Y0184096D03*
X0297342Y0169096D03*
X0297342Y0162404D03*
X0307342Y0162404D03*
X0307342Y0169096D03*
X0317342Y0169096D03*
X0317342Y0162404D03*
X0317342Y0177404D03*
X0317342Y0184096D03*
X0269842Y0256904D03*
X0269842Y0263596D03*
X0287342Y0264404D03*
X0287342Y0271096D03*
X0287342Y0279404D03*
X0287342Y0286096D03*
X0297342Y0271096D03*
X0297342Y0264404D03*
X0307342Y0264404D03*
X0307342Y0271096D03*
X0317342Y0271096D03*
X0317342Y0264404D03*
X0317342Y0279404D03*
X0317342Y0286096D03*
X0215342Y0286096D03*
X0215342Y0279404D03*
X0215342Y0271096D03*
X0215342Y0264404D03*
X0205342Y0264404D03*
X0205342Y0271096D03*
X0195342Y0271096D03*
X0195342Y0264404D03*
X0185342Y0264404D03*
X0185342Y0271096D03*
X0185342Y0279404D03*
X0185342Y0286096D03*
X0167842Y0263596D03*
X0167842Y0256904D03*
X0113342Y0264404D03*
X0113342Y0271096D03*
X0113342Y0279404D03*
X0113342Y0286096D03*
X0103342Y0271096D03*
X0103342Y0264404D03*
X0093342Y0264404D03*
X0093342Y0271096D03*
X0083342Y0271096D03*
X0083342Y0264404D03*
X0083342Y0279404D03*
X0083342Y0286096D03*
X0065842Y0263596D03*
X0065842Y0256904D03*
X0083342Y0184096D03*
X0083342Y0177404D03*
X0083342Y0169096D03*
X0083342Y0162404D03*
X0093342Y0162404D03*
X0093342Y0169096D03*
X0103342Y0169096D03*
X0103342Y0162404D03*
X0113342Y0162404D03*
X0113342Y0169096D03*
X0113342Y0177404D03*
X0113342Y0184096D03*
X0065842Y0161596D03*
X0065842Y0154904D03*
X0083342Y0082096D03*
X0083342Y0075404D03*
X0083342Y0067096D03*
X0083342Y0060404D03*
X0093342Y0060404D03*
X0093342Y0067096D03*
X0103342Y0067096D03*
X0103342Y0060404D03*
X0113342Y0060404D03*
X0113342Y0067096D03*
X0113342Y0075404D03*
X0113342Y0082096D03*
X0065842Y0059596D03*
X0065842Y0052904D03*
X0167842Y0052904D03*
X0167842Y0059596D03*
X0185342Y0060404D03*
X0185342Y0067096D03*
X0185342Y0075404D03*
X0185342Y0082096D03*
X0195342Y0067096D03*
X0195342Y0060404D03*
X0205342Y0060404D03*
X0205342Y0067096D03*
X0215342Y0067096D03*
X0215342Y0060404D03*
X0215342Y0075404D03*
X0215342Y0082096D03*
X0269842Y0059596D03*
X0269842Y0052904D03*
X0287342Y0060404D03*
X0287342Y0067096D03*
X0287342Y0075404D03*
X0287342Y0082096D03*
X0297342Y0067096D03*
X0297342Y0060404D03*
X0307342Y0060404D03*
X0307342Y0067096D03*
X0317342Y0067096D03*
X0317342Y0060404D03*
X0317342Y0075404D03*
X0317342Y0082096D03*
D15*
X0303326Y0081703D03*
X0301358Y0081703D03*
X0301358Y0075797D03*
X0303326Y0075797D03*
X0201326Y0075797D03*
X0199358Y0075797D03*
X0199358Y0081703D03*
X0201326Y0081703D03*
X0099326Y0081703D03*
X0097358Y0081703D03*
X0097358Y0075797D03*
X0099326Y0075797D03*
X0099326Y0177797D03*
X0097358Y0177797D03*
X0097358Y0183703D03*
X0099326Y0183703D03*
X0199358Y0183703D03*
X0201326Y0183703D03*
X0201326Y0177797D03*
X0199358Y0177797D03*
X0301358Y0177797D03*
X0303326Y0177797D03*
X0303326Y0183703D03*
X0301358Y0183703D03*
X0301358Y0279797D03*
X0303326Y0279797D03*
X0303326Y0285703D03*
X0301358Y0285703D03*
X0201326Y0285703D03*
X0199358Y0285703D03*
X0199358Y0279797D03*
X0201326Y0279797D03*
X0099326Y0279797D03*
X0097358Y0279797D03*
X0097358Y0285703D03*
X0099326Y0285703D03*
D16*
X0101295Y0285703D03*
X0101295Y0283734D03*
X0101295Y0281766D03*
X0101295Y0279797D03*
X0095389Y0279797D03*
X0095389Y0281766D03*
X0095389Y0283734D03*
X0095389Y0285703D03*
X0197389Y0285703D03*
X0197389Y0283734D03*
X0197389Y0281766D03*
X0197389Y0279797D03*
X0203295Y0279797D03*
X0203295Y0281766D03*
X0203295Y0283734D03*
X0203295Y0285703D03*
X0299389Y0285703D03*
X0299389Y0283734D03*
X0299389Y0281766D03*
X0299389Y0279797D03*
X0305295Y0279797D03*
X0305295Y0281766D03*
X0305295Y0283734D03*
X0305295Y0285703D03*
X0305295Y0183703D03*
X0305295Y0181734D03*
X0305295Y0179766D03*
X0305295Y0177797D03*
X0299389Y0177797D03*
X0299389Y0179766D03*
X0299389Y0181734D03*
X0299389Y0183703D03*
X0203295Y0183703D03*
X0203295Y0181734D03*
X0203295Y0179766D03*
X0203295Y0177797D03*
X0197389Y0177797D03*
X0197389Y0179766D03*
X0197389Y0181734D03*
X0197389Y0183703D03*
X0101295Y0183703D03*
X0101295Y0181734D03*
X0101295Y0179766D03*
X0101295Y0177797D03*
X0095389Y0177797D03*
X0095389Y0179766D03*
X0095389Y0181734D03*
X0095389Y0183703D03*
X0095389Y0081703D03*
X0095389Y0079734D03*
X0095389Y0077766D03*
X0095389Y0075797D03*
X0101295Y0075797D03*
X0101295Y0077766D03*
X0101295Y0079734D03*
X0101295Y0081703D03*
X0197389Y0081703D03*
X0197389Y0079734D03*
X0197389Y0077766D03*
X0197389Y0075797D03*
X0203295Y0075797D03*
X0203295Y0077766D03*
X0203295Y0079734D03*
X0203295Y0081703D03*
X0299389Y0081703D03*
X0299389Y0079734D03*
X0299389Y0077766D03*
X0299389Y0075797D03*
X0305295Y0075797D03*
X0305295Y0077766D03*
X0305295Y0079734D03*
X0305295Y0081703D03*
D17*
X0305688Y0093750D03*
X0298995Y0093750D03*
X0203688Y0093750D03*
X0196995Y0093750D03*
X0101688Y0093750D03*
X0094995Y0093750D03*
X0094995Y0195750D03*
X0101688Y0195750D03*
X0196995Y0195750D03*
X0203688Y0195750D03*
X0298995Y0195750D03*
X0305688Y0195750D03*
X0305688Y0297750D03*
X0298995Y0297750D03*
X0203688Y0297750D03*
X0196995Y0297750D03*
X0101688Y0297750D03*
X0094995Y0297750D03*
D18*
X0058342Y0038750D03*
X0138342Y0038750D03*
X0160342Y0038750D03*
X0240342Y0038750D03*
X0262342Y0038750D03*
X0342342Y0038750D03*
X0342342Y0118750D03*
X0342342Y0140750D03*
X0262342Y0140750D03*
X0240342Y0140750D03*
X0240342Y0118750D03*
X0262342Y0118750D03*
X0160342Y0118750D03*
X0138342Y0118750D03*
X0138342Y0140750D03*
X0160342Y0140750D03*
X0160342Y0220750D03*
X0160342Y0242750D03*
X0138342Y0242750D03*
X0138342Y0220750D03*
X0058342Y0220750D03*
X0058342Y0242750D03*
X0058342Y0322750D03*
X0138342Y0322750D03*
X0160342Y0322750D03*
X0240342Y0322750D03*
X0262342Y0322750D03*
X0342342Y0322750D03*
X0342342Y0242750D03*
X0342342Y0220750D03*
X0262342Y0220750D03*
X0262342Y0242750D03*
X0240342Y0242750D03*
X0240342Y0220750D03*
X0058342Y0140750D03*
X0058342Y0118750D03*
D19*
X0050842Y0126250D03*
X0145842Y0133250D03*
X0152842Y0126250D03*
X0247842Y0133250D03*
X0254842Y0126250D03*
X0349842Y0133250D03*
X0254842Y0228250D03*
X0247842Y0235250D03*
X0152842Y0228250D03*
X0145842Y0235250D03*
X0050842Y0228250D03*
X0050842Y0330250D03*
X0152842Y0330250D03*
X0254842Y0330250D03*
X0349842Y0235250D03*
X0349842Y0031250D03*
X0247842Y0031250D03*
X0145842Y0031250D03*
D20*
X0075342Y0341000D03*
X0325342Y0341000D03*
D21*
X0071777Y0020500D02*
X0071779Y0020619D01*
X0071785Y0020738D01*
X0071795Y0020857D01*
X0071809Y0020975D01*
X0071827Y0021093D01*
X0071848Y0021210D01*
X0071874Y0021326D01*
X0071904Y0021442D01*
X0071937Y0021556D01*
X0071974Y0021669D01*
X0072015Y0021781D01*
X0072060Y0021892D01*
X0072108Y0022001D01*
X0072160Y0022108D01*
X0072216Y0022213D01*
X0072275Y0022317D01*
X0072337Y0022418D01*
X0072403Y0022518D01*
X0072472Y0022615D01*
X0072544Y0022709D01*
X0072620Y0022802D01*
X0072698Y0022891D01*
X0072779Y0022978D01*
X0072864Y0023063D01*
X0072951Y0023144D01*
X0073040Y0023222D01*
X0073133Y0023298D01*
X0073227Y0023370D01*
X0073324Y0023439D01*
X0073424Y0023505D01*
X0073525Y0023567D01*
X0073629Y0023626D01*
X0073734Y0023682D01*
X0073841Y0023734D01*
X0073950Y0023782D01*
X0074061Y0023827D01*
X0074173Y0023868D01*
X0074286Y0023905D01*
X0074400Y0023938D01*
X0074516Y0023968D01*
X0074632Y0023994D01*
X0074749Y0024015D01*
X0074867Y0024033D01*
X0074985Y0024047D01*
X0075104Y0024057D01*
X0075223Y0024063D01*
X0075342Y0024065D01*
X0075461Y0024063D01*
X0075580Y0024057D01*
X0075699Y0024047D01*
X0075817Y0024033D01*
X0075935Y0024015D01*
X0076052Y0023994D01*
X0076168Y0023968D01*
X0076284Y0023938D01*
X0076398Y0023905D01*
X0076511Y0023868D01*
X0076623Y0023827D01*
X0076734Y0023782D01*
X0076843Y0023734D01*
X0076950Y0023682D01*
X0077055Y0023626D01*
X0077159Y0023567D01*
X0077260Y0023505D01*
X0077360Y0023439D01*
X0077457Y0023370D01*
X0077551Y0023298D01*
X0077644Y0023222D01*
X0077733Y0023144D01*
X0077820Y0023063D01*
X0077905Y0022978D01*
X0077986Y0022891D01*
X0078064Y0022802D01*
X0078140Y0022709D01*
X0078212Y0022615D01*
X0078281Y0022518D01*
X0078347Y0022418D01*
X0078409Y0022317D01*
X0078468Y0022213D01*
X0078524Y0022108D01*
X0078576Y0022001D01*
X0078624Y0021892D01*
X0078669Y0021781D01*
X0078710Y0021669D01*
X0078747Y0021556D01*
X0078780Y0021442D01*
X0078810Y0021326D01*
X0078836Y0021210D01*
X0078857Y0021093D01*
X0078875Y0020975D01*
X0078889Y0020857D01*
X0078899Y0020738D01*
X0078905Y0020619D01*
X0078907Y0020500D01*
X0078905Y0020381D01*
X0078899Y0020262D01*
X0078889Y0020143D01*
X0078875Y0020025D01*
X0078857Y0019907D01*
X0078836Y0019790D01*
X0078810Y0019674D01*
X0078780Y0019558D01*
X0078747Y0019444D01*
X0078710Y0019331D01*
X0078669Y0019219D01*
X0078624Y0019108D01*
X0078576Y0018999D01*
X0078524Y0018892D01*
X0078468Y0018787D01*
X0078409Y0018683D01*
X0078347Y0018582D01*
X0078281Y0018482D01*
X0078212Y0018385D01*
X0078140Y0018291D01*
X0078064Y0018198D01*
X0077986Y0018109D01*
X0077905Y0018022D01*
X0077820Y0017937D01*
X0077733Y0017856D01*
X0077644Y0017778D01*
X0077551Y0017702D01*
X0077457Y0017630D01*
X0077360Y0017561D01*
X0077260Y0017495D01*
X0077159Y0017433D01*
X0077055Y0017374D01*
X0076950Y0017318D01*
X0076843Y0017266D01*
X0076734Y0017218D01*
X0076623Y0017173D01*
X0076511Y0017132D01*
X0076398Y0017095D01*
X0076284Y0017062D01*
X0076168Y0017032D01*
X0076052Y0017006D01*
X0075935Y0016985D01*
X0075817Y0016967D01*
X0075699Y0016953D01*
X0075580Y0016943D01*
X0075461Y0016937D01*
X0075342Y0016935D01*
X0075223Y0016937D01*
X0075104Y0016943D01*
X0074985Y0016953D01*
X0074867Y0016967D01*
X0074749Y0016985D01*
X0074632Y0017006D01*
X0074516Y0017032D01*
X0074400Y0017062D01*
X0074286Y0017095D01*
X0074173Y0017132D01*
X0074061Y0017173D01*
X0073950Y0017218D01*
X0073841Y0017266D01*
X0073734Y0017318D01*
X0073629Y0017374D01*
X0073525Y0017433D01*
X0073424Y0017495D01*
X0073324Y0017561D01*
X0073227Y0017630D01*
X0073133Y0017702D01*
X0073040Y0017778D01*
X0072951Y0017856D01*
X0072864Y0017937D01*
X0072779Y0018022D01*
X0072698Y0018109D01*
X0072620Y0018198D01*
X0072544Y0018291D01*
X0072472Y0018385D01*
X0072403Y0018482D01*
X0072337Y0018582D01*
X0072275Y0018683D01*
X0072216Y0018787D01*
X0072160Y0018892D01*
X0072108Y0018999D01*
X0072060Y0019108D01*
X0072015Y0019219D01*
X0071974Y0019331D01*
X0071937Y0019444D01*
X0071904Y0019558D01*
X0071874Y0019674D01*
X0071848Y0019790D01*
X0071827Y0019907D01*
X0071809Y0020025D01*
X0071795Y0020143D01*
X0071785Y0020262D01*
X0071779Y0020381D01*
X0071777Y0020500D01*
D22*
X0075342Y0020500D03*
M02*
